<?xml version="1.0" encoding="UTF-8"?>
<svg width="72px" height="72px" viewBox="0 0 72 72" version="1.1" xmlns="http://www.w3.org/2000/svg" xmlns:xlink="http://www.w3.org/1999/xlink">
    <!-- Generator: Sketch 53.1 (72631) - https://sketchapp.com -->
    <title>icon-fixed</title>
    <desc>Created with Sketch.</desc>
    <g id="icon-fixed" stroke="none" stroke-width="1" fill="none" fill-rule="evenodd" stroke-linejoin="round">
        <g id="accounting-coins" transform="translate(3.000000, 7.000000)" stroke="#001CBD" stroke-linecap="round" stroke-width="2">
            <circle id="Oval" cx="19.9627193" cy="20.0372807" r="19.9254386"></circle>
            <g id="Group-6" transform="translate(14.983500, 8.082018)">
                <path d="M8.96430681,3.98508772 L3.56318459,3.98508772 C1.85591489,3.98628014 0.389106812,5.19759863 0.065131335,6.87384775 C-0.258844142,8.55009687 0.650953278,10.2207516 2.23482201,10.8580357 L7.71830272,13.0524906 C9.30217145,13.6897748 10.2119689,15.3604294 9.88799339,17.0366786 C9.56401792,18.7129277 8.09720983,19.9242462 6.38994014,19.9254386 L0.99413137,19.9254386" id="Shape"></path>
                <path d="M4.97921909,3.98508772 L4.97921909,1.05915277e-13" id="Shape"></path>
                <path d="M4.97921909,23.9105263 L4.97921909,19.9254386" id="Shape"></path>
            </g>
        </g>
        <g id="flash" transform="translate(33.000000, 9.000000)" fill="#FFFFFF" stroke="#001CBD" stroke-width="2">
            <path d="M1.29,55.5887949 L11.25792,32.3982137 C11.5014258,31.8297623 11.4427905,31.1774231 11.1017901,30.6612109 C10.7607897,30.1449988 10.1828827,29.8337293 9.56298,29.8323846 L2.274,29.8323846 C1.65200442,29.8347334 1.07080386,29.524003 0.728532507,29.0061231 C0.386261151,28.4882432 0.329124228,27.8331254 0.5766,27.2641026 L11.868,1.50769231 C12.1613071,0.83755573 12.8247521,0.404222855 13.55802,0.403846154 L32.50002,0.403846154 C33.2094007,0.404099177 33.855814,0.809882546 34.162734,1.44760812 C34.4696539,2.0853337 34.3827195,2.84204914 33.93912,3.39404274 L23.97612,15.8135385 C23.5337659,16.3659126 23.4479197,17.1221649 23.7552628,17.7591568 C24.0626058,18.3961488 24.7087791,18.8012177 25.41768,18.8012821 L33.7374,18.8012821 C34.4842099,18.8009437 35.1575693,19.2495623 35.4430817,19.9376743 C35.7285941,20.6257864 35.5699415,21.4176603 35.0412,21.9435641 L1.29,55.5887949 Z" id="Shape"></path>
        </g>
    </g>
</svg>