<?xml version="1.0" encoding="UTF-8"?>
<svg width="72px" height="72px" viewBox="0 0 72 72" version="1.1" xmlns="http://www.w3.org/2000/svg" xmlns:xlink="http://www.w3.org/1999/xlink">
    <!-- Generator: Sketch 53.1 (72631) - https://sketchapp.com -->
    <title>icon-billing</title>
    <desc>Created with Sketch.</desc>
    <g id="icon-billing" stroke="none" stroke-width="1" fill="none" fill-rule="evenodd" stroke-linecap="round" stroke-linejoin="round">
        <g id="Group-3" transform="translate(11.000000, 11.000000)" stroke="#001CBD" stroke-width="2">
            <g id="Group">
                <g id="accounting-coins-bill">
                    <ellipse id="Oval" cx="13.8883929" cy="30.4764031" rx="13.2704082" ry="6.63520408"></ellipse>
                    <path d="M0.617984694,30.4764031 L0.617984694,43.7468112 C0.617984694,47.4116556 6.55870408,50.3820153 13.8883929,50.3820153 C21.2180816,50.3820153 27.158801,47.4116556 27.158801,43.7468112 L27.158801,30.4764031" id="Shape"></path>
                    <path d="M27.158801,37.1116071 C27.158801,40.7764515 21.2180816,43.7468112 13.8883929,43.7468112 C6.55870408,43.7468112 0.617984694,40.7764515 0.617984694,37.1116071" id="Shape"></path>
                    <path d="M33.7940051,33.7940051 L47.0644133,33.7940051 C48.8966743,33.7940051 50.3820153,32.3086641 50.3820153,30.4764031 L50.3820153,3.93558673 C50.3820153,2.10332572 48.8966743,0.617984694 47.0644133,0.617984694 L3.93558673,0.617984694 C2.10332572,0.617984694 0.617984694,2.10332572 0.617984694,3.93558673 L0.617984694,20.5390791" id="Shape"></path>
                    <path d="M18.8647959,17.2059949 C18.8651271,14.1493925 20.9534986,11.4884907 23.9224542,10.7617715 C26.8914098,10.0350523 29.9726811,11.4305668 31.3847365,14.1414555 C32.796792,16.8523442 32.1742379,20.1771179 29.877023,22.1934566" id="Shape"></path>
                    <path d="M8.9119898,8.08258929 C9.37005505,8.08258929 9.74139031,8.45392454 9.74139031,8.9119898 C9.74139031,9.37005505 9.37005505,9.74139031 8.9119898,9.74139031 C8.45392454,9.74139031 8.08258929,9.37005505 8.08258929,8.9119898 C8.08258929,8.45392454 8.45392454,8.08258929 8.9119898,8.08258929" id="Shape"></path>
                    <path d="M42.0880102,24.6705995 C42.5460755,24.6705995 42.9174107,25.0419347 42.9174107,25.5 C42.9174107,25.9580653 42.5460755,26.3294005 42.0880102,26.3294005 C41.629945,26.3294005 41.2586097,25.9580653 41.2586097,25.5 C41.2586097,25.0419347 41.629945,24.6705995 42.0880102,24.6705995" id="Shape"></path>
                </g>
            </g>
        </g>
    </g>
</svg>