<?xml version="1.0" encoding="UTF-8"?>
<svg width="72px" height="72px" viewBox="0 0 72 72" version="1.1" xmlns="http://www.w3.org/2000/svg" xmlns:xlink="http://www.w3.org/1999/xlink">
    <!-- Generator: Sketch 53.1 (72631) - https://sketchapp.com -->
    <title>icon-no-lock</title>
    <desc>Created with Sketch.</desc>
    <g id="icon-no-lock" stroke="none" stroke-width="1" fill="none" fill-rule="evenodd" stroke-linecap="round" stroke-linejoin="round">
        <g id="Group" transform="translate(5.000000, 5.000000)" stroke="#001CBD" stroke-width="2">
            <g id="task-list-star">
                <path d="M47.8046917,30.652825 L52.0296,41.8114083 L60.2546,41.8114083 C61.1044652,41.7780638 61.8837623,42.2818972 62.2021791,43.0705628 C62.5205959,43.8592285 62.3095658,44.7628977 61.6747833,45.3289667 L54.54645,50.3050917 L58.4999333,59.390975 C58.8539972,60.2439379 58.6251848,61.2276853 57.9310425,61.8368433 C57.2369002,62.4460013 56.231769,62.5451247 55.4320083,62.0832917 L45.8663333,56.7068833 L36.3061417,62.0832917 C35.506381,62.5451247 34.5012498,62.4460013 33.8071075,61.8368433 C33.1129652,61.2276853 32.8841528,60.2439379 33.2382167,59.390975 L37.1944417,50.3050917 L30.0661083,45.3289667 C29.4293339,44.7651698 29.2157518,43.861929 29.5325736,43.072643 C29.8493954,42.2833569 30.6282059,41.7784654 31.4780667,41.8114083 L39.7030667,41.8114083 L43.9362,30.652825 C44.3177363,29.9391892 45.0612203,29.4936117 45.8704458,29.4936117 C46.6796714,29.4936117 47.4231554,29.9391892 47.8046917,30.652825 Z" id="Shape"></path>
                <path d="M12.99375,27.4176583 L31.5,27.4176583" id="Shape"></path>
                <path d="M12.99375,37.6989083 L19.1625,37.6989083" id="Shape"></path>
                <path d="M12.99375,47.9801583 L19.1625,47.9801583" id="Shape"></path>
                <path d="M23.275,62.3739083 L4.76875,62.3739083 C2.49747897,62.3739083 0.65625,60.5326794 0.65625,58.2614083 L0.65625,15.0801583 C0.65625,12.8088873 2.49747897,10.9676583 4.76875,10.9676583 L15.05,10.9676583 C15.05,5.28948075 19.6530724,0.686408333 25.33125,0.686408333 C31.0094276,0.686408333 35.6125,5.28948075 35.6125,10.9676583 L45.89375,10.9676583 C48.165021,10.9676583 50.00625,12.8088873 50.00625,15.0801583 L50.00625,21.2489083" id="Shape"></path>
                <path d="M25.33125,8.91140833 C25.8990678,8.91140833 26.359375,9.37171557 26.359375,9.93953333 C26.359375,10.5073511 25.8990678,10.9676583 25.33125,10.9676583 C24.7634322,10.9676583 24.303125,10.5073511 24.303125,9.93953333 C24.303125,9.37171557 24.7634322,8.91140833 25.33125,8.91140833" id="Shape"></path>
            </g>
        </g>
    </g>
</svg>