<?xml version="1.0" encoding="UTF-8"?>
<svg width="72px" height="72px" viewBox="0 0 72 72" version="1.1" xmlns="http://www.w3.org/2000/svg" xmlns:xlink="http://www.w3.org/1999/xlink">
    <!-- Generator: Sketch 53.1 (72631) - https://sketchapp.com -->
    <title>icon-rewards</title>
    <desc>Created with Sketch.</desc>
    <g id="icon-rewards" stroke="none" stroke-width="1" fill="none" fill-rule="evenodd" stroke-linecap="round" stroke-linejoin="round">
        <g id="gift-box" transform="translate(6.000000, 6.000000)" stroke="#001CBD" stroke-width="2">
            <path d="M55.5640244,28.0335366 L4.43597561,28.0335366 L4.43597561,55.5640244 C4.43597561,57.7361199 6.19680693,59.4969512 8.36890244,59.4969512 L51.6310976,59.4969512 C53.8031931,59.4969512 55.5640244,57.7361199 55.5640244,55.5640244 L55.5640244,28.0335366 Z" id="Shape"></path>
            <path d="M55.5640244,16.2347561 L4.43597561,16.2347561 C2.2638801,16.2347561 0.50304878,17.9955874 0.50304878,20.1676829 L0.50304878,26.0670732 C0.50304878,27.1531209 1.38346444,28.0335366 2.4695122,28.0335366 L57.5304878,28.0335366 C58.6165356,28.0335366 59.4969512,27.1531209 59.4969512,26.0670732 L59.4969512,20.1676829 C59.4969512,17.9955874 57.7361199,16.2347561 55.5640244,16.2347561 Z" id="Shape"></path>
            <path d="M28.0335366,16.2347561 C19.3443902,16.2347561 10.3353659,9.19219512 10.3353659,0.50304878" id="Shape"></path>
            <path d="M10.3353659,0.50304878 C19.0245122,0.50304878 28.0335366,7.54560976 28.0335366,16.2347561" id="Shape"></path>
            <path d="M31.9664634,16.2347561 C40.6556098,16.2347561 49.6646341,9.19219512 49.6646341,0.50304878" id="Shape"></path>
            <path d="M49.6646341,0.50304878 C40.9754878,0.50304878 31.9664634,7.54560976 31.9664634,16.2347561" id="Shape"></path>
            <rect id="Rectangle-path" x="24.1006098" y="16.2347561" width="11.7987805" height="43.2621951"></rect>
        </g>
    </g>
</svg>