<?xml version="1.0" encoding="UTF-8"?>
<svg width="72px" height="72px" viewBox="0 0 72 72" version="1.1" xmlns="http://www.w3.org/2000/svg" xmlns:xlink="http://www.w3.org/1999/xlink">
    <!-- Generator: Sketch 53.1 (72631) - https://sketchapp.com -->
    <title>icon-contact</title>
    <desc>Created with Sketch.</desc>
    <g id="icon-contact" stroke="none" stroke-width="1" fill="none" fill-rule="evenodd" stroke-linecap="round" stroke-linejoin="round">
        <g id="Regular-4" transform="translate(6.000000, 8.000000)" stroke="#001CBD" stroke-width="2">
            <g id="Regular-3">
                <g id="Regular-2">
                    <g id="Regular">
                        <path d="M23.4933333,48.6666667 C22.1333333,48.4266667 2.16,55.7333333 2.16,55.7333333 C7.06666667,51.12 9.6,46.6666667 9.01333333,42.24 C3.48479509,38.1118885 0.161184284,31.6711634 0,24.7733333 C0,11.2533333 13.3333333,0.293333333 30,0.293333333 C46.6666667,0.293333333 60,11.2533333 60,24.7733333 C60,38.2933333 46.56,49.3333333 30,49.3333333 C27.8155737,49.3055304 25.6380107,49.0824195 23.4933333,48.6666667 L23.4933333,48.6666667 Z" id="Shape"></path>
                        <path d="M35.0933333,8.8 C44.16,10.6666667 50.88,17.3333333 50.88,25.3066667 C50.7135803,30.4729439 48.0615853,35.2405753 43.76,38.1066667" id="Shape"></path>
                    </g>
                </g>
            </g>
        </g>
    </g>
</svg>